<?xml version="1.0" encoding="utf-8"?>
<svg width="130px" height="50px" viewBox="0 0 130 50" version="1.1" xmlns:xlink="http://www.w3.org/1999/xlink" xmlns="http://www.w3.org/2000/svg">
  <desc>Created with Lunacy</desc>
  <g id="Group-27">
    <path d="M101.066 2.98246C100.858 2.55 100.333 2.3614 99.8961 2.5693C99.4593 2.77807 99.2742 3.30175 99.483 3.73947L104.529 14.2991C89.3672 4.94737 71.954 0 54.0304 0C35.8803 0 18.2786 5.06491 2.98824 14.6386L7.96631 4.04912C8.17245 3.61053 7.98386 3.08684 7.54614 2.88158C7.10754 2.67632 6.58386 2.86842 6.37859 3.30175L0.0829805 16.6947C-0.0442125 16.9658 -0.0240371 17.2842 0.135612 17.5377C0.296138 17.7912 0.575086 17.9447 0.875086 17.9465L15.6733 17.9868C15.8461 17.9868 16.0075 17.9377 16.1435 17.8518C16.3882 17.6965 16.5514 17.4237 16.5532 17.1114C16.5549 16.6289 16.1619 16.2333 15.6777 16.2325L3.80052 16.1991C18.8391 6.75263 36.1637 1.75439 54.0304 1.75439C71.6733 1.75439 88.8111 6.63684 103.722 15.8632L91.8479 15.9711C91.3637 15.9763 90.9733 16.3728 90.9786 16.8561C90.9821 17.1675 91.1461 17.4395 91.3926 17.593C91.5286 17.6781 91.6909 17.7272 91.8637 17.7263L106.662 17.5912C106.961 17.5886 107.239 17.4333 107.398 17.1789C107.557 16.9246 107.574 16.6061 107.445 16.336L101.066 2.98246Z" transform="translate(10.82465 31.54778)" id="Fill-1" fill="#F75930" stroke="none" />
    <path d="M8.92105 7.35583L5.39737 9.01548L3.02018 3.96811L6.42982 2.36284C6.70965 2.23039 7.00789 2.16372 7.32456 2.16197C7.64211 2.16021 7.95439 2.22249 8.26228 2.34881C8.57018 2.476 8.85263 2.66372 9.11053 2.91548C9.36842 3.16635 9.58684 3.48214 9.76579 3.86284C9.93947 4.23127 10.0474 4.59179 10.0895 4.94442C10.1307 5.29618 10.1167 5.62863 10.0465 5.94179C9.97632 6.2532 9.84825 6.53214 9.65965 6.77513C9.47193 7.01898 9.22544 7.21197 8.92105 7.35583M11.4342 8.02249C11.8184 7.53828 12.0921 7.00758 12.2535 6.426C12.414 5.84618 12.4693 5.24705 12.4184 4.62776C12.3667 4.00758 12.207 3.41197 11.9377 2.84091C11.6807 2.29442 11.3228 1.80758 10.8658 1.37951C10.4079 0.950564 9.89737 0.616353 9.33509 0.377757C8.77281 0.138283 8.17456 0.0128445 7.54035 0.00056379C6.90702 -0.00996253 6.28509 0.12688 5.67544 0.413722L0 3.08653L6.36754 16.6093L8.50088 15.6049L6.28509 10.9006L9.94211 9.17863C10.5518 8.89179 11.0491 8.5067 11.4342 8.02249" transform="translate(0.0003356934 11.99891)" id="Fill-3" fill="#F75930" stroke="none" />
    <path d="M2.21175 4.73604C2.25122 4.30446 2.3635 3.9106 2.54947 3.55271C2.73543 3.19657 2.98368 2.88078 3.29508 2.60534C3.60649 2.33078 3.96701 2.12025 4.37754 1.97376C4.78719 1.82727 5.20298 1.7606 5.62491 1.77376C6.04684 1.7878 6.44245 1.87289 6.81263 2.03166C7.18193 2.19043 7.52228 2.42289 7.8328 2.72903C8.14333 3.03604 8.39596 3.40008 8.59157 3.82201L2.32579 6.05885C2.21 5.60797 2.17228 5.16762 2.21175 4.73604M1.47929 9.60271C1.96789 10.1589 2.53456 10.5974 3.17842 10.9185C3.8214 11.2396 4.52491 11.4246 5.28719 11.4729C6.04947 11.5211 6.83456 11.4018 7.63982 11.1141C8.73719 10.722 9.61087 10.1308 10.26 9.34043C10.9091 8.55008 11.2732 7.70096 11.3512 6.79394L9.29684 6.92289C9.27579 7.1992 9.20824 7.4685 9.09421 7.73341C8.97929 7.99832 8.82842 8.24131 8.63982 8.46587C8.45122 8.68955 8.22754 8.8878 7.96964 9.06236C7.71175 9.23692 7.43719 9.37552 7.14596 9.47903C6.74947 9.62025 6.34333 9.68429 5.92842 9.6685C5.51263 9.65183 5.11526 9.55973 4.73368 9.39043C4.35298 9.22113 4.00736 8.98341 3.69684 8.67639C3.38631 8.37113 3.12842 7.99306 2.92403 7.54394L11.231 4.57815C11.2109 4.48166 11.1837 4.3606 11.1468 4.21674C11.1109 4.07376 11.0644 3.92289 11.0074 3.76411C10.7574 3.06411 10.396 2.43692 9.92228 1.88253C9.44859 1.32903 8.89508 0.893061 8.26 0.576394C7.62491 0.25885 6.92842 0.0720083 6.17052 0.0141136C5.41263 -0.0429039 4.63017 0.0728855 3.82403 0.360605C3.00386 0.65271 2.31438 1.05973 1.75473 1.57903C1.19596 2.0992 0.769645 2.69131 0.47754 3.35446C0.185435 4.01762 0.0275398 4.72201 0.0029784 5.4685C-0.0207058 6.21499 0.096838 6.95096 0.356487 7.67815C0.616136 8.40622 0.98982 9.04657 1.47929 9.60271" transform="translate(14.65536 10.89668)" id="Fill-5" fill="#F75930" stroke="none" />
    <path d="M2.31753 4.39247C2.39823 3.9679 2.5491 3.58545 2.76753 3.24773C2.98682 2.91176 3.26489 2.62054 3.60174 2.37668C3.9377 2.13282 4.31753 1.95825 4.73946 1.85211C5.16139 1.7451 5.58156 1.71966 6.00086 1.77317C6.41928 1.82755 6.80525 1.95124 7.15788 2.14422C7.50963 2.33808 7.8263 2.60211 8.10612 2.9372C8.38507 3.27229 8.60174 3.65913 8.75525 4.09773L2.30349 5.72054C2.23156 5.26089 2.23595 4.8179 2.31753 4.39247M1.11928 9.16527C1.55174 9.76615 2.07367 10.2583 2.68332 10.639C3.29296 11.0223 3.97542 11.274 4.72981 11.3942C5.48332 11.5161 6.2763 11.4723 7.10612 11.2635C8.23595 10.9802 9.16226 10.4758 9.88419 9.75036C10.6061 9.02668 11.0509 8.21703 11.2166 7.32141L9.15875 7.25299C9.11139 7.52492 9.01753 7.7872 8.87805 8.03896C8.73946 8.29159 8.56577 8.51966 8.35612 8.72404C8.14735 8.92931 7.90612 9.10562 7.63244 9.25387C7.35788 9.40211 7.07103 9.51439 6.77191 9.58983C6.36402 9.69246 5.95349 9.71527 5.54121 9.66001C5.12981 9.60475 4.74209 9.47404 4.37981 9.26878C4.01665 9.06352 3.6956 8.79334 3.41577 8.45825C3.13682 8.12317 2.91665 7.72317 2.75525 7.2565L11.3096 5.10475C11.3 5.0065 11.2833 4.88457 11.2614 4.73808C11.2386 4.59159 11.207 4.43632 11.1658 4.27317C10.9842 3.55211 10.6851 2.89247 10.2675 2.2951C9.8491 1.69948 9.33946 1.21264 8.73858 0.83457C8.13682 0.458255 7.46226 0.204746 6.71314 0.074044C5.96402 -0.0549034 5.17367 -0.0154297 4.34384 0.192465C3.49998 0.404746 2.77454 0.743342 2.16753 1.2065C1.56051 1.67054 1.07893 2.2179 0.725421 2.85036C0.370157 3.48194 0.144719 4.1679 0.0491048 4.90913C-0.0473865 5.64948 -0.00177242 6.39422 0.186824 7.14247C0.375421 7.89071 0.685947 8.56615 1.11928 9.16527" transform="translate(26.81705 7.230343)" id="Fill-7" fill="#F75930" stroke="none" />
    <path d="M4.12369 11.5863L2.99737 4.94415C3.16842 4.18889 3.56404 3.56345 4.18509 3.06696C4.80526 2.57047 5.55614 2.23362 6.43684 2.05555L6.0886 0.000291205C6.01667 -0.00146318 5.93597 0.00467717 5.84649 0.0195895C5.75614 0.0353789 5.64211 0.0546772 5.50351 0.0783614C4.81842 0.237133 4.21404 0.592396 3.68772 1.14415C3.16228 1.69591 2.77632 2.37661 2.52895 3.18713L2.11754 0.758186L0 1.11696L1.84035 11.9731L4.12369 11.5863Z" transform="translate(39.10806 4.733482)" id="Fill-9" fill="#F75930" stroke="none" />
    <path d="M6.48684 2.07105L6.25614 0L0 0.696491L0.230702 2.76754L6.48684 2.07105Z" transform="translate(46.75552 8.168243)" id="Fill-11" fill="#F75930" stroke="none" />
    <path d="M0.0859649 5.58509L1.53684 5.51579L1.86667 12.3921C1.88772 12.8404 1.97632 13.2193 2.13158 13.5281C2.28684 13.836 2.49211 14.0833 2.74649 14.2675C3.00088 14.4518 3.29211 14.586 3.6193 14.6675C3.94649 14.7509 4.29211 14.7833 4.65702 14.7667C5.24561 14.7386 5.79474 14.6237 6.30526 14.4237C6.81579 14.2237 7.21491 14.0465 7.50263 13.8921L6.93158 12.086C6.79386 12.1632 6.58158 12.264 6.29211 12.3904C6.00351 12.5167 5.69737 12.5868 5.37544 12.6026C5.05263 12.6184 4.77895 12.5447 4.55263 12.3789C4.32719 12.2149 4.19123 11.936 4.14386 11.5447L3.85 5.40439L6.24737 5.28947L6.1614 3.50263L3.76404 3.61754L3.59123 0L1.27807 0.111404L1.45175 3.72807L0 3.79737L0.0859649 5.58509Z" transform="translate(54.79044 0.0001754761)" id="Fill-13" fill="#F75930" stroke="none" />
    <path d="M2.68229 4.18302C2.86913 3.73215 3.11562 3.3418 3.41913 3.01285C3.72264 2.68478 4.07702 2.42776 4.48229 2.2418C4.88755 2.05583 5.31386 1.96987 5.76386 1.98127C6.22702 1.99355 6.65509 2.09969 7.04983 2.30057C7.44457 2.50057 7.78492 2.77338 8.07088 3.11723C8.35597 3.46197 8.57702 3.86548 8.73316 4.32513C8.8893 4.78566 8.96036 5.27601 8.94632 5.79443C8.93229 6.32776 8.83492 6.81636 8.65421 7.26109C8.47351 7.70583 8.23141 8.0918 7.9279 8.42074C7.62439 8.74969 7.27001 9.0032 6.86474 9.18127C6.46036 9.36022 6.02615 9.44355 5.56299 9.43039C5.09983 9.41899 4.67088 9.31285 4.27615 9.11197C3.88141 8.91197 3.54106 8.64355 3.25509 8.30495C2.97001 7.96811 2.74895 7.5725 2.59194 7.11899C2.43667 6.66548 2.36562 6.1725 2.37965 5.63829C2.39369 5.11987 2.49457 4.63478 2.68229 4.18302M1.43053 9.59355C1.90772 10.126 2.4893 10.5567 3.17527 10.8839C3.86211 11.2102 4.6393 11.3857 5.50948 11.4093C6.36562 11.433 7.14457 11.2988 7.84808 11.0085C8.54983 10.719 9.15772 10.3216 9.67001 9.81548C10.1814 9.31022 10.5805 8.71285 10.8656 8.02601C11.1507 7.33917 11.3042 6.61548 11.3244 5.85846C11.3446 5.10145 11.2305 4.37162 10.9832 3.66987C10.7349 2.96811 10.3691 2.35057 9.88492 1.81899C9.40071 1.28566 8.81562 0.855832 8.12965 0.528639C7.44369 0.201446 6.67264 0.026007 5.8165 0.00232277C4.96123 -0.0196071 4.18141 0.113726 3.47878 0.4032C2.77615 0.692674 2.16825 1.0918 1.65685 1.59706C1.14457 2.10232 0.745444 2.69969 0.460356 3.38653C0.175269 4.07338 0.022637 4.79618 0.00246153 5.5532C-0.0185911 6.31197 0.095444 7.04092 0.342812 7.74267C0.591058 8.44443 0.953339 9.06197 1.43053 9.59355" transform="translate(62.82535 3.333904)" id="Fill-15" fill="#F75930" stroke="none" />
    <path d="M6.48333 0.681579L0.225438 0L0 2.07193L6.25789 2.75263L6.48333 0.681579Z" transform="translate(76.15738 8.139122)" id="Fill-17" fill="#F75930" stroke="none" />
    <path d="M4.77719 2.49737L8.47632 3.21842C8.77895 3.27807 9.05877 3.40088 9.31579 3.58684C9.57281 3.77281 9.78772 4.00789 9.9614 4.29211C10.1342 4.57544 10.2509 4.89474 10.3105 5.25C10.3702 5.60439 10.3596 5.9886 10.2789 6.40175C10.2009 6.80175 10.0746 7.15614 9.9 7.46491C9.72544 7.77456 9.51754 8.03421 9.27632 8.24386C9.03509 8.45439 8.76667 8.60263 8.47105 8.68772C8.17544 8.77281 7.86228 8.78333 7.53158 8.7193L3.70965 7.97281L4.77719 2.49737ZM3.31053 10.0184L7.27807 10.793C7.9386 10.9219 8.56754 10.9053 9.16403 10.7421C9.76053 10.5798 10.2956 10.3123 10.7684 9.93947C11.2412 9.56842 11.6404 9.11667 11.9658 8.58597C12.2904 8.05702 12.5132 7.48158 12.6351 6.8614C12.75 6.2693 12.75 5.66491 12.6342 5.04912C12.5184 4.43333 12.3044 3.86228 11.9921 3.33596C11.6798 2.81053 11.2719 2.35614 10.7675 1.97105C10.2632 1.58772 9.6807 1.3307 9.0193 1.20088L2.86228 0L0 14.6711L2.31491 15.1228L3.31053 10.0184Z" transform="translate(84.54568 1.236668)" id="Fill-19" fill="#F75930" stroke="none" />
    <path d="M3.49187 2.85059C3.77871 2.52603 4.10328 2.27516 4.4638 2.09709C4.82433 1.91902 5.21117 1.81112 5.62608 1.7734C6.03924 1.73568 6.45503 1.77866 6.87257 1.9041C7.28924 2.02866 7.6638 2.21989 7.99626 2.48042C8.32871 2.74095 8.59713 3.04445 8.80064 3.39095C9.00503 3.73744 9.14187 4.12603 9.21117 4.55674C9.28047 4.98831 9.26906 5.43042 9.17696 5.88656L2.80152 3.9848C2.97433 3.55323 3.20415 3.17516 3.49187 2.85059M0.0225755 6.34095C0.088365 7.07866 0.285733 7.76726 0.614681 8.40761C0.943628 9.04708 1.40152 9.612 1.98749 10.1023C2.57345 10.5918 3.27696 10.9594 4.09714 11.2032C5.2138 11.5366 6.26731 11.576 7.25854 11.3225C8.24889 11.069 9.04538 10.6006 9.64538 9.91551L7.91117 8.8041C7.73135 9.01375 7.51644 9.19182 7.26907 9.33831C7.01994 9.48393 6.75415 9.59095 6.46994 9.66024C6.18486 9.72866 5.88749 9.75673 5.57608 9.74445C5.26468 9.73305 4.96117 9.68217 4.66556 9.59358C4.26205 9.4734 3.89714 9.28393 3.5717 9.02603C3.24626 8.76726 2.97959 8.45761 2.77345 8.09533C2.56556 7.73305 2.42784 7.33744 2.35854 6.90673C2.28924 6.47603 2.30503 6.01901 2.40503 5.53656L10.8577 8.05849C10.8989 7.96814 10.948 7.8541 11.0033 7.71726C11.0585 7.57954 11.1112 7.43042 11.1594 7.26901C11.3717 6.55673 11.4506 5.83656 11.3971 5.10937C11.3428 4.38305 11.1533 3.70498 10.8287 3.0734C10.505 2.44182 10.0542 1.87954 9.47608 1.38393C8.89889 0.890068 8.19977 0.520769 7.37959 0.275155C6.54538 0.0269097 5.74977 -0.053792 4.991 0.0348045C4.23135 0.124278 3.53836 0.34884 2.91029 0.71112C2.2831 1.0734 1.73836 1.54796 1.27784 2.13568C0.816435 2.72252 0.476084 3.38568 0.255909 4.12603C0.0348562 4.86551 -0.043214 5.60498 0.0225755 6.34095" transform="translate(97.20111 8.803002)" id="Fill-21" fill="#F75930" stroke="none" />
    <path d="M3.7888 2.6581C4.10547 2.36336 4.45284 2.14406 4.82915 2.00196C5.20459 1.85985 5.6002 1.78968 6.01687 1.79231C6.43178 1.79494 6.84143 1.8774 7.24406 2.04143C7.64757 2.20459 8.00196 2.43266 8.3081 2.72389C8.61336 3.01512 8.85108 3.34231 9.02126 3.70722C9.19143 4.07213 9.28968 4.47214 9.31775 4.90722C9.34494 5.34319 9.29056 5.78354 9.15547 6.2274L2.99319 3.72126C3.20634 3.3081 3.47213 2.95371 3.7888 2.6581M6.92389 9.47915C6.66161 9.60021 6.38705 9.68178 6.09758 9.72301C5.8081 9.76424 5.5081 9.76424 5.20021 9.72126C4.89144 9.67915 4.59407 9.59933 4.3081 9.48354C3.91775 9.32477 3.57301 9.10196 3.27389 8.81336C2.97477 8.52389 2.73968 8.19056 2.56863 7.80985C2.39758 7.42915 2.29758 7.02213 2.27038 6.58705C2.24319 6.15108 2.30284 5.69845 2.44845 5.2274L10.6195 8.55108C10.6695 8.46512 10.7292 8.35635 10.7976 8.22564C10.8651 8.09406 10.9318 7.9502 10.9949 7.79406C11.2756 7.10547 11.4239 6.39757 11.4397 5.66863C11.4555 4.94056 11.3327 4.2467 11.0704 3.58705C10.8081 2.9274 10.4142 2.32301 9.88705 1.77564C9.35986 1.2274 8.69933 0.79231 7.90635 0.469503C7.10021 0.14231 6.31512 -0.0147072 5.55196 0.00108227C4.78793 0.0151174 4.07652 0.173012 3.41687 0.473012C2.75635 0.773012 2.16951 1.19231 1.65372 1.73266C1.1388 2.27389 0.735296 2.90108 0.444068 3.61687C0.153717 4.33091 0.00547114 5.05898 0.00020798 5.79933C-0.00593237 6.53968 0.123892 7.24406 0.389682 7.91249C0.655471 8.58091 1.05723 9.18705 1.59407 9.73091C2.13003 10.2756 2.79407 10.709 3.58793 11.0318C4.666 11.4704 5.71161 11.6107 6.72214 11.4537C7.73354 11.2976 8.57038 10.9063 9.23354 10.2818L7.61424 9.00985C7.41512 9.20196 7.1853 9.3581 6.92389 9.47915" transform="translate(109.1584 13.01401)" id="Fill-23" fill="#F75930" stroke="none" />
    <path d="M10.2974 2.57105C10.2158 2.52982 10.1123 2.47895 9.98685 2.41491C9.34036 2.1386 8.64211 2.06754 7.89211 2.20175C7.14211 2.33596 6.42808 2.65702 5.74913 3.16491L6.85351 0.962281L4.93334 0L0 9.84386L2.07018 10.8816L5.0886 4.85789C5.67281 4.35088 6.36229 4.0807 7.15615 4.04649C7.95001 4.01316 8.75527 4.18421 9.57018 4.56228L10.5044 2.69912C10.4474 2.65439 10.379 2.61228 10.2974 2.57105" transform="translate(119.4526 16.90447)" id="Fill-25" fill="#F75930" stroke="none" />
  </g>
</svg>