<?xml version="1.0" encoding="UTF-8" standalone="no"?>
<svg
   xmlns:dc="http://purl.org/dc/elements/1.1/"
   xmlns:cc="http://creativecommons.org/ns#"
   xmlns:rdf="http://www.w3.org/1999/02/22-rdf-syntax-ns#"
   xmlns:svg="http://www.w3.org/2000/svg"
   xmlns="http://www.w3.org/2000/svg"
   xmlns:xlink="http://www.w3.org/1999/xlink"
   xmlns:sodipodi="http://sodipodi.sourceforge.net/DTD/sodipodi-0.dtd"
   xmlns:inkscape="http://www.inkscape.org/namespaces/inkscape"
   width="200"
   height="87"
   viewBox="0 0 200 87"
   version="1.1"
   id="svg4214"
   sodipodi:docname="storage_red_box.svg"
   inkscape:version="0.92.4 (5da689c313, 2019-01-14)">
  <metadata
     id="metadata4218">
    <rdf:RDF>
      <cc:Work
         rdf:about="">
        <dc:format>image/svg+xml</dc:format>
        <dc:type
           rdf:resource="http://purl.org/dc/dcmitype/StillImage" />
        <dc:title></dc:title>
      </cc:Work>
    </rdf:RDF>
  </metadata>
  <sodipodi:namedview
     pagecolor="#ffffff"
     bordercolor="#666666"
     borderopacity="1"
     objecttolerance="10"
     gridtolerance="10"
     guidetolerance="10"
     inkscape:pageopacity="0"
     inkscape:pageshadow="2"
     inkscape:window-width="1858"
     inkscape:window-height="1057"
     id="namedview4216"
     showgrid="false"
     inkscape:zoom="1.1137255"
     inkscape:cx="127.5"
     inkscape:cy="82"
     inkscape:window-x="-8"
     inkscape:window-y="-8"
     inkscape:window-maximized="1"
     inkscape:current-layer="svg4214"
     showguides="true"
     inkscape:guide-bbox="true">
    <sodipodi:guide
       position="218.18662,90.68662"
       orientation="0,1"
       id="guide4220"
       inkscape:locked="false" />
    <sodipodi:guide
       position="199.33099,135.58099"
       orientation="1,0"
       id="guide4222"
       inkscape:locked="false" />
  </sodipodi:namedview>
  <desc
     id="desc4166">Created with Lunacy</desc>
  <defs
     id="defs4187">
    <filter
       filterUnits="userSpaceOnUse"
       id="filter_1"
       style="color-interpolation-filters:sRGB">
      <feFlood
         flood-opacity="0"
         result="BackgroundImageFix"
         id="feFlood4168" />
      <feColorMatrix
         in="SourceAlpha"
         type="matrix"
         values="0 0 0 0 0 0 0 0 0 0 0 0 0 0 0 0 0 0 127 0"
         id="feColorMatrix4170" />
      <feOffset
         dx="-5"
         dy="10"
         id="feOffset4172" />
      <feGaussianBlur
         stdDeviation="15"
         id="feGaussianBlur4174" />
      <feColorMatrix
         type="matrix"
         values="0 0 0 0 0 0 0 0 0 0 0 0 0 0 0 0 0 0 0.1490196 0"
         id="feColorMatrix4176" />
      <feBlend
         mode="normal"
         in2="BackgroundImageFix"
         result="effect0_dropShadow"
         id="feBlend4178" />
      <feBlend
         mode="normal"
         in="SourceGraphic"
         in2="effect0_dropShadow"
         result="shape"
         id="feBlend4180" />
    </filter>
    <path
       d="M 0,0 H 26.1707 V 12.8673 H 0 Z"
       transform="translate(0,2.180894e-5)"
       id="path_1"
       inkscape:connector-curvature="0" />
    <clipPath
       id="mask_1">
      <use
         xlink:href="#path_1"
         id="use4184"
         x="0"
         y="0"
         width="100%"
         height="100%" />
    </clipPath>
  </defs>
  <g
     id="Group-12"
     transform="translate(17,5)">
    <g
       id="Group-6">
      <g
         id="g4190"
         style="filter:url(#filter_1)">
        <path
           d="m 10,0 h 145 q 0.256,0 0.511,0.0116575 0.254,0.0116575 0.506,0.0349487 0.252,0.0232912 0.502,0.0581688 0.249,0.034877 0.495,0.08127 0.247,0.046392 0.489,0.104205 0.242,0.057813 0.481,0.126928 0.238,0.069116 0.471,0.149393 0.234,0.080276 0.462,0.171551 0.228,0.091274 0.45,0.19336 0.223,0.102088 0.439,0.214778 0.217,0.11269 0.426,0.23575 0.21,0.12306 0.413,0.25625 0.203,0.13318 0.398,0.27622 0.195,0.14303 0.383,0.29563 0.187,0.15259 0.367,0.31443 0.179,0.16184 0.35,0.3326 0.171,0.17076 0.332,0.35009 0.162,0.17933 0.315,0.36686 0.153,0.18753 0.296,0.38288 0.143,0.19535 0.276,0.39813 0.133,0.20277 0.256,0.41255 0.123,0.20978 0.236,0.42615 0.112,0.21636 0.215,0.43886 0.102,0.2225 0.193,0.45069 0.091,0.22818 0.171,0.46159 0.081,0.23341 0.15,0.47155 0.069,0.23815 0.127,0.48056 0.058,0.24241 0.104,0.48858 0.046,0.24617 0.081,0.4956 0.035,0.24943 0.058,0.50161 0.024,0.25218 0.035,0.5066 Q 165,9.74386 165,10 v 54 q 0,0.2561 -0.012,0.5106 -0.011,0.2544 -0.035,0.5066 -0.023,0.2522 -0.058,0.5016 -0.035,0.2494 -0.081,0.4956 -0.046,0.2462 -0.104,0.4886 -0.058,0.2424 -0.127,0.4805 -0.069,0.2382 -0.15,0.4716 -0.08,0.2334 -0.171,0.4616 -0.091,0.2281 -0.193,0.4506 -0.103,0.2226 -0.215,0.4389 -0.113,0.2164 -0.236,0.4262 -0.123,0.2097 -0.256,0.4125 -0.133,0.2028 -0.276,0.3981 -0.143,0.1954 -0.296,0.3829 -0.153,0.1876 -0.315,0.3669 -0.161,0.1793 -0.332,0.3501 -0.171,0.1707 -0.35,0.3326 -0.18,0.1618 -0.367,0.3144 -0.188,0.1526 -0.383,0.2956 -0.195,0.1431 -0.398,0.2762 -0.203,0.1332 -0.413,0.2563 -0.209,0.1231 -0.426,0.2358 -0.216,0.1126 -0.439,0.2147 -0.222,0.1021 -0.45,0.1934 -0.228,0.0913 -0.462,0.1715 -0.233,0.0803 -0.471,0.1494 -0.239,0.0691 -0.481,0.127 -0.242,0.0578 -0.489,0.1042 -0.246,0.0464 -0.495,0.0812 -0.25,0.0349 -0.502,0.0582 -0.252,0.0233 -0.506,0.0349 Q 155.256,74 155,74 H 10 Q 9.74386,74 9.48944,73.9883 9.23502,73.9767 8.98284,73.9534 8.73066,73.9301 8.48123,73.8952 8.2318,73.8604 7.98563,73.814 7.73946,73.7676 7.49705,73.7098 7.25464,73.6519 7.01649,73.5828 6.77835,73.5137 6.54494,73.4334 6.31153,73.3532 6.08335,73.2619 5.85516,73.1706 5.63266,73.0685 5.41016,72.9664 5.1938,72.8537 4.97743,72.7411 4.76765,72.618 4.55787,72.4949 4.3551,72.3617 4.15232,72.2286 3.95697,72.0855 3.76162,71.9425 3.57409,71.7899 3.38656,71.6373 3.20723,71.4755 3.0279,71.3136 2.85714,71.1429 2.68638,70.9721 2.52454,70.7928 2.3627,70.6135 2.21011,70.4259 2.05751,70.2384 1.91448,70.043 1.77144,69.8477 1.63826,69.6449 1.50507,69.4421 1.38201,69.2324 1.25895,69.0226 1.14626,68.8062 1.03357,68.5899 0.931482,68.3673 0.829396,68.1448 0.738122,67.9167 0.646847,67.6885 0.566571,67.4551 0.486294,67.2217 0.417178,66.9835 0.348063,66.7454 0.29025,66.503 0.232437,66.2606 0.186045,66.0144 0.139652,65.7682 0.104775,65.5188 0.0698974,65.2694 0.0466062,65.0172 0.023315,64.765 0.0116575,64.5106 0,64.2561 0,64 V 10 Q 0,9.74386 0.0116575,9.48944 0.023315,9.23502 0.0466062,8.98284 0.0698974,8.73066 0.104775,8.48123 0.139652,8.2318 0.186045,7.98563 0.232437,7.73946 0.29025,7.49705 0.348063,7.25464 0.417178,7.01649 0.486294,6.77835 0.566571,6.54494 0.646847,6.31153 0.738122,6.08335 0.829396,5.85516 0.931482,5.63266 1.03357,5.41016 1.14626,5.1938 1.25895,4.97743 1.38201,4.76765 1.50507,4.55787 1.63826,4.3551 1.77144,4.15232 1.91448,3.95697 2.05751,3.76162 2.21011,3.57409 2.3627,3.38656 2.52454,3.20723 2.68638,3.0279 2.85714,2.85714 3.0279,2.68638 3.20723,2.52454 3.38656,2.3627 3.57409,2.21011 3.76162,2.05751 3.95697,1.91448 4.15232,1.77144 4.3551,1.63826 4.55787,1.50507 4.76765,1.38201 4.97743,1.25895 5.1938,1.14626 5.41016,1.03357 5.63266,0.931482 5.85516,0.829396 6.08335,0.738122 6.31153,0.646847 6.54494,0.566571 6.77835,0.486294 7.01649,0.417178 7.25464,0.348063 7.49705,0.29025 7.73946,0.232437 7.98563,0.186045 8.2318,0.139652 8.48123,0.104775 8.73066,0.0698974 8.98284,0.0466062 9.23502,0.023315 9.48944,0.0116575 9.74386,0 10,0 Z"
           id="Rectangle"
           inkscape:connector-curvature="0"
           style="fill:#ffffff;stroke:none" />
      </g>
      <g
         id="Distributed-Storage"
         transform="translate(66,22.21006)">
        <g
           id="DISTRIBUTED"
           style="fill:#212353">
          <path
             d="M 17.5285,4.932 Q 17.732,5.064 17.809,5.141 L 18.48,3.909 Q 17.963,3.557 17.27,3.2985 16.577,3.04 15.752,3.04 q -0.594,0 -1.111,0.1595 -0.517,0.1595 -0.9075,0.4675 -0.3905,0.308 -0.6105,0.77 -0.22,0.462 -0.22,1.056 0,0.451 0.1375,0.7755 0.1375,0.3245 0.4125,0.572 0.275,0.2475 0.6875,0.429 0.4125,0.1815 0.9735,0.3355 0.462,0.132 0.836,0.242 0.374,0.11 0.638,0.242 0.264,0.132 0.407,0.308 0.143,0.176 0.143,0.429 0,0.803 -1.254,0.803 -0.451,0 -0.88,-0.11 Q 14.575,9.409 14.223,9.2495 13.871,9.09 13.6125,8.9305 13.354,8.771 13.255,8.672 l -0.671,1.309 q 0.682,0.484 1.54,0.748 0.858,0.264 1.738,0.264 0.572,0 1.0945,-0.1265 Q 17.479,10.74 17.8805,10.465 18.282,10.19 18.5185,9.7445 18.755,9.299 18.755,8.672 18.755,8.133 18.579,7.7645 18.403,7.396 18.0785,7.132 17.754,6.868 17.2865,6.692 16.819,6.516 16.247,6.362 15.807,6.252 15.4715,6.153 15.136,6.054 14.916,5.933 14.696,5.812 14.5805,5.6525 14.465,5.493 14.465,5.251 q 0,-0.418 0.308,-0.649 0.308,-0.231 0.935,-0.231 0.352,0 0.693,0.088 0.341,0.088 0.6325,0.2145 Q 17.325,4.8 17.5285,4.932 Z M 0.814,10.905 v -7.81 h 2.838 q 0.957,0 1.6775,0.308 Q 6.05,3.711 6.534,4.239 7.018,4.767 7.26,5.4765 7.502,6.186 7.502,6.989 7.502,7.88 7.2325,8.6005 6.963,9.321 6.457,9.8325 5.951,10.344 5.2415,10.6245 4.532,10.905 3.652,10.905 Z m 8.536,0 v -7.81 h 1.518 v 7.81 z M 26.4,4.426 h -2.497 v 6.479 H 22.396 V 4.426 H 19.899 V 3.095 H 26.4 Z m 1.628,-1.331 v 7.81 h 1.518 V 8.287 h 1.496 l 1.595,2.618 h 1.705 L 32.56,7.968 Q 33.209,7.693 33.5885,7.0715 33.968,6.45 33.968,5.691 33.968,5.218 33.781,4.7505 33.594,4.283 33.264,3.9145 32.934,3.546 32.4775,3.3205 32.021,3.095 31.482,3.095 Z m 7.975,7.81 v -7.81 h 1.518 v 7.81 z m 9.9,-1.144 q 0.198,-0.374 0.198,-0.869 0,-0.77 -0.3905,-1.2815 Q 45.32,7.099 44.649,6.901 45.199,6.659 45.485,6.1585 45.771,5.658 45.771,5.086 45.771,4.723 45.6445,4.3655 45.518,4.008 45.287,3.7275 45.056,3.447 44.726,3.271 44.396,3.095 43.989,3.095 h -4.18 v 7.81 h 3.773 c 0.3447,0 0.6692,-0.044 0.9735,-0.132 q 0.4565,-0.132 0.803,-0.385 0.3465,-0.253 0.5445,-0.627 z m 5.346,-0.143 q 0.539,0 0.9075,-0.22 0.3685,-0.22 0.594,-0.572 Q 52.976,8.474 53.0695,8.0175 53.163,7.561 53.163,7.077 V 3.095 h 1.507 v 3.982 q 0,0.803 -0.1925,1.507 -0.1925,0.704 -0.605,1.232 -0.4125,0.528 -1.0615,0.836 -0.649,0.308 -1.551,0.308 -0.935,0 -1.5895,-0.3245 Q 49.016,10.311 48.609,9.7775 48.202,9.244 48.0205,8.54 47.839,7.836 47.839,7.077 V 3.095 h 1.518 v 3.982 q 0,0.495 0.0935,0.9515 0.0935,0.4565 0.319,0.8085 0.2255,0.352 0.5885,0.5665 0.363,0.2145 0.891,0.2145 z M 60.203,4.426 H 62.7 V 3.095 h -6.501 v 1.331 h 2.497 v 6.479 h 1.507 z m 9.548,5.148 v 1.331 h -5.423 v -7.81 h 5.324 v 1.331 h -3.806 v 1.881 h 3.289 v 1.232 h -3.289 v 2.035 z m 1.848,-6.479 v 7.81 h 2.838 q 0.88,0 1.5895,-0.2805 Q 76.736,10.344 77.242,9.8325 77.748,9.321 78.0175,8.6005 78.287,7.88 78.287,6.989 78.287,6.186 78.045,5.4765 77.803,4.767 77.319,4.239 76.835,3.711 76.1145,3.403 75.394,3.095 74.437,3.095 Z M 41.327,6.362 V 4.393 h 2.09 q 0.363,0 0.6105,0.264 0.2475,0.264 0.2475,0.715 0,0.462 -0.2695,0.726 Q 43.736,6.362 43.351,6.362 Z M 5.973,6.989 Q 5.973,6.428 5.819,5.955 5.665,5.482 5.368,5.141 5.071,4.8 4.6365,4.613 4.202,4.426 3.652,4.426 h -1.32 v 5.148 h 1.32 q 0.561,0 0.9955,-0.198 Q 5.082,9.178 5.3735,8.8315 5.665,8.485 5.819,8.012 5.973,7.539 5.973,6.989 Z M 31.449,6.956 h -1.903 v -2.53 h 1.837 q 0.198,0 0.3905,0.0935 0.1925,0.0935 0.341,0.264 0.1485,0.1705 0.2365,0.4015 0.088,0.231 0.088,0.506 0,0.264 -0.077,0.495 Q 32.285,6.417 32.153,6.5875 32.021,6.758 31.8395,6.857 31.658,6.956 31.449,6.956 Z M 76.604,5.955 q 0.154,0.473 0.154,1.034 0,0.55 -0.154,1.023 Q 76.45,8.485 76.1585,8.8315 75.867,9.178 75.4325,9.376 74.998,9.574 74.437,9.574 h -1.32 V 4.426 h 1.32 q 0.55,0 0.9845,0.187 0.4345,0.187 0.7315,0.528 0.297,0.341 0.451,0.814 z M 44.5005,8.2045 q 0.0715,0.1925 0.0715,0.4015 0,0.209 -0.077,0.396 Q 44.418,9.189 44.286,9.3265 44.154,9.464 43.9725,9.541 43.791,9.618 43.582,9.618 H 41.327 V 7.561 h 2.332 q 0.198,0 0.363,0.0825 0.165,0.0825 0.286,0.2255 0.121,0.143 0.1925,0.3355 z"
             id="path4192"
             inkscape:connector-curvature="0" />
        </g>
        <g
           id="STORAGE"
           style="fill:#212353">
          <path
             d="M 5.467,19.141 Q 5.39,19.064 5.1865,18.932 4.983,18.8 4.6915,18.6735 4.4,18.547 4.059,18.459 3.718,18.371 3.366,18.371 q -0.627,0 -0.935,0.231 -0.308,0.231 -0.308,0.649 0,0.242 0.1155,0.4015 0.1155,0.1595 0.3355,0.2805 0.22,0.121 0.5555,0.22 0.3355,0.099 0.7755,0.209 0.572,0.154 1.0395,0.33 0.4675,0.176 0.792,0.44 0.3245,0.264 0.5005,0.6325 0.176,0.3685 0.176,0.9075 0,0.627 -0.2365,1.0725 Q 5.94,24.19 5.5385,24.465 5.137,24.74 4.6145,24.8665 4.092,24.993 3.52,24.993 q -0.88,0 -1.738,-0.264 -0.858,-0.264 -1.54,-0.748 l 0.671,-1.309 q 0.099,0.099 0.3575,0.2585 0.2585,0.1595 0.6105,0.319 0.352,0.1595 0.781,0.2695 0.429,0.11 0.88,0.11 1.254,0 1.254,-0.803 0,-0.253 -0.143,-0.429 Q 4.51,22.221 4.246,22.089 3.982,21.957 3.608,21.847 3.234,21.737 2.772,21.605 2.211,21.451 1.7985,21.2695 1.386,21.088 1.111,20.8405 0.836,20.593 0.6985,20.2685 0.561,19.944 0.561,19.493 q 0,-0.594 0.22,-1.056 0.22,-0.462 0.6105,-0.77 Q 1.782,17.359 2.299,17.1995 2.816,17.04 3.41,17.04 q 0.825,0 1.518,0.2585 0.693,0.2585 1.21,0.6105 z m 11.9955,5.4835 q 0.6985,0.3355 1.5565,0.3355 0.825,0 1.529,-0.3245 0.704,-0.3245 1.21,-0.869 0.506,-0.5445 0.792,-1.254 0.286,-0.7095 0.286,-1.4905 0,-0.737 -0.275,-1.452 -0.275,-0.715 -0.77,-1.276 Q 21.296,17.733 20.5975,17.3865 19.899,17.04 19.052,17.04 q -0.825,0 -1.529,0.3245 -0.704,0.3245 -1.2155,0.8745 -0.5115,0.55 -0.803,1.265 -0.2915,0.715 -0.2915,1.496 0,0.748 0.275,1.463 0.275,0.715 0.7755,1.2705 0.5005,0.5555 1.199,0.891 z M 46.112,24.025 q -0.935,0.935 -2.178,0.935 -0.77,0 -1.4465,-0.308 Q 41.811,24.344 41.3105,23.805 40.81,23.266 40.5185,22.5345 40.227,21.803 40.227,20.956 q 0,-0.803 0.2915,-1.5125 0.2915,-0.7095 0.803,-1.243 0.5115,-0.5335 1.2045,-0.847 0.693,-0.3135 1.507,-0.3135 1.1,0 1.8865,0.462 0.7865,0.462 1.1825,1.243 l -1.133,0.836 Q 45.672,18.998 45.1385,18.69 44.605,18.382 43.978,18.382 q -0.495,0 -0.9075,0.209 -0.4125,0.209 -0.704,0.572 -0.2915,0.363 -0.451,0.836 -0.1595,0.473 -0.1595,1.001 0,0.55 0.176,1.0285 0.176,0.4785 0.484,0.8305 0.308,0.352 0.7315,0.5555 0.4235,0.2035 0.9185,0.2035 1.133,0 2.046,-1.067 v -0.55 H 44.539 V 20.89 h 2.827 v 4.015 H 46.112 Z M 14.058,18.426 h -2.497 v 6.479 H 10.054 V 18.426 H 7.557 v -1.331 h 6.501 z m 10.604,-1.331 h 3.454 q 0.539,0 0.9955,0.2255 0.4565,0.2255 0.7865,0.594 0.33,0.3685 0.517,0.836 0.187,0.4675 0.187,0.9405 0,0.759 -0.3795,1.3805 -0.3795,0.6215 -1.0285,0.8965 l 1.782,2.937 H 29.271 L 27.676,22.287 H 26.18 v 2.618 h -1.518 z m 11.539,0 h -1.342 l -2.981,7.81 h 1.562 l 0.715,-1.947 h 2.728 l 0.726,1.947 h 1.562 z m 18.546,7.81 v -1.331 h -3.905 v -2.035 h 3.289 v -1.232 h -3.289 v -1.881 h 3.806 v -1.331 h -5.324 v 7.81 z M 16.907,21.979 Q 16.753,21.506 16.753,21 q 0,-0.484 0.1485,-0.9515 0.1485,-0.4675 0.4345,-0.836 0.286,-0.3685 0.715,-0.594 0.429,-0.2255 0.979,-0.2255 0.528,0 0.9515,0.2145 0.4235,0.2145 0.715,0.5775 0.2915,0.363 0.451,0.836 0.1595,0.473 0.1595,0.979 0,0.484 -0.1485,0.9515 -0.1485,0.4675 -0.44,0.8415 -0.2915,0.374 -0.715,0.5995 -0.4235,0.2255 -0.9735,0.2255 -0.539,0 -0.9625,-0.22 -0.4235,-0.22 -0.715,-0.583 -0.2915,-0.363 -0.4455,-0.836 z m 9.273,-1.023 h 1.903 q 0.209,0 0.3905,-0.099 0.1815,-0.099 0.3135,-0.2695 0.132,-0.1705 0.209,-0.4015 0.077,-0.231 0.077,-0.495 0,-0.275 -0.088,-0.506 Q 28.897,18.954 28.7485,18.7835 28.6,18.613 28.4075,18.5195 28.215,18.426 28.017,18.426 H 26.18 Z m 9.35,-2.134 1.078,3.069 h -2.2 z"
             id="path4195"
             inkscape:connector-curvature="0" />
        </g>
      </g>
    </g>
    <g
       id="Group-16"
       transform="translate(22.41463,17.78424)">
      <path
         d="M 0,8.55957 H 13.9442 V 0 H 0 Z"
         transform="translate(6.264619,3.688329)"
         id="Fill-1"
         inkscape:connector-curvature="0"
         style="fill:#f9f9f9;stroke:none" />
      <g
         id="Group-15"
         transform="translate(0,0.1871207)">
        <g
           id="Group-4"
           transform="translate(0,22.46321)">
          <path
             d="M 0,0 H 26.1707 V 12.8673 H 0 Z"
             transform="translate(0,2.180894e-5)"
             id="Clip-3"
             inkscape:connector-curvature="0"
             style="fill:none;stroke:none" />
          <g
             clip-path="url(#mask_1)"
             id="g4203">
            <path
               d="m 0,0 v 6.32459 c 0,3.61331 5.85854,6.54271 13.0854,6.54271 7.2268,0 13.0853,-2.9294 13.0853,-6.54271 V 0 H 21.7433 L 20.6795,3.22031 5.88471,2.63627 4.04752,0 Z"
               transform="translate(0,2.180894e-5)"
               id="Fill-2"
               inkscape:connector-curvature="0"
               style="fill:#ec4e25;stroke:none" />
          </g>
        </g>
        <path
           d="m 13.0854,9.17873 c -3.76687,0 -6.82056,-1.27779 -6.82056,-2.85414 0,-1.57635 3.05369,-2.85435 6.82056,-2.85435 3.7668,0 6.8205,1.278 6.8205,2.85435 0,1.57635 -3.0537,2.85414 -6.8205,2.85414 M 13.0854,0 C 5.85854,0 0,2.92916 0,6.54268 0,10.156 5.85854,13.0854 13.0854,13.0854 c 7.2268,0 13.0853,-2.9294 13.0853,-6.54272 C 26.1707,2.92916 20.3122,0 13.0854,0"
           transform="translate(0,15.92064)"
           id="Fill-5"
           inkscape:connector-curvature="0"
           style="fill:#cf390e;stroke:none" />
        <path
           d="m 0,0 v 6.32459 c 0,3.61331 5.85854,6.54271 13.0854,6.54271 7.2268,0 13.0853,-2.9294 13.0853,-6.54271 V 0 H 21.7433 L 20.6795,3.22031 5.88471,2.63627 4.04752,0 Z"
           transform="translate(0,14.53396)"
           id="Fill-7"
           inkscape:connector-curvature="0"
           style="fill:#ec4e25;stroke:none" />
        <path
           d="m 13.0854,6.60244 c -3.76687,0 -6.82056,-1.278 -6.82056,-2.85436 0,-1.57635 3.05369,-2.85435 6.82056,-2.85435 3.7668,0 6.8205,1.278 6.8205,2.85435 0,1.57636 -3.0537,2.85436 -6.8205,2.85436 M 13.0854,0 C 5.85854,0 0,0.352869 0,3.96617 c 0,3.61331 5.85854,6.54273 13.0854,6.54273 7.2268,0 13.0853,-2.92942 13.0853,-6.54273 C 26.1707,0.352869 20.3122,0 13.0854,0"
           transform="translate(0,10.56776)"
           id="Fill-9"
           inkscape:connector-curvature="0"
           style="fill:#cf390e;stroke:none" />
        <path
           d="m 0,0 v 6.32459 c 0,3.61331 5.85854,6.54271 13.0854,6.54271 7.2268,0 13.0853,-2.9294 13.0853,-6.54271 V 0 H 21.7433 L 20.6795,3.22031 5.88471,2.63627 4.04752,0 Z"
           transform="translate(0,6.573695)"
           id="Fill-11"
           inkscape:connector-curvature="0"
           style="fill:#ec4e25;stroke:none" />
        <path
           d="m 13.0854,9.17895 c -3.76687,0 -6.82056,-1.27801 -6.82056,-2.85436 0,-1.57635 3.05369,-2.85435 6.82056,-2.85435 3.7668,0 6.8205,1.278 6.8205,2.85435 0,1.57635 -3.0537,2.85436 -6.8205,2.85436 M 13.0854,0 C 5.85854,0 0,2.92938 0,6.54268 0,10.156 5.85854,13.0854 13.0854,13.0854 c 7.2268,0 13.0853,-2.9294 13.0853,-6.54272 C 26.1707,2.92938 20.3122,0 13.0854,0"
           transform="translate(0,0.03099051)"
           id="Fill-13"
           inkscape:connector-curvature="0"
           style="fill:#ff7652;stroke:none" />
      </g>
    </g>
  </g>
</svg>
