<?xml version="1.0" encoding="utf-8"?>
<svg width="52px" height="123px" viewBox="0 0 52 123" version="1.1" xmlns:xlink="http://www.w3.org/1999/xlink" xmlns="http://www.w3.org/2000/svg">
  <desc>Created with Lunacy</desc>
  <path d="M0 0L42 0Q42.2561 0 42.5106 0.0116575Q42.765 0.023315 43.0172 0.0466062Q43.2693 0.0698974 43.5188 0.104775Q43.7682 0.139652 44.0144 0.186045Q44.2605 0.232437 44.503 0.29025Q44.7454 0.348063 44.9835 0.417178Q45.2217 0.486294 45.4551 0.566571Q45.6885 0.646847 45.9167 0.738122Q46.1448 0.829396 46.3673 0.931482Q46.5899 1.03357 46.8062 1.14626Q47.0226 1.25895 47.2324 1.38201Q47.4421 1.50507 47.6449 1.63826Q47.8477 1.77144 48.043 1.91448Q48.2384 2.05751 48.4259 2.21011Q48.6134 2.3627 48.7928 2.52454Q48.9721 2.68638 49.1429 2.85714Q49.3136 3.0279 49.4755 3.20723Q49.6373 3.38656 49.7899 3.57409Q49.9425 3.76162 50.0855 3.95697Q50.2286 4.15232 50.3617 4.3551Q50.4949 4.55787 50.618 4.76765Q50.7411 4.97743 50.8538 5.1938Q50.9664 5.41016 51.0685 5.63266Q51.1706 5.85516 51.2619 6.08335Q51.3532 6.31153 51.4334 6.54494Q51.5137 6.77835 51.5828 7.01649Q51.652 7.25464 51.7098 7.49705Q51.7676 7.73946 51.814 7.98563Q51.8604 8.2318 51.8952 8.48123Q51.9301 8.73066 51.9534 8.98284Q51.9767 9.23502 51.9883 9.48944Q52 9.74386 52 10L52 113Q52 113.256 51.9883 113.511Q51.9767 113.765 51.9534 114.017Q51.9301 114.269 51.8952 114.519Q51.8604 114.768 51.814 115.014Q51.7676 115.261 51.7098 115.503Q51.652 115.745 51.5828 115.984Q51.5137 116.222 51.4334 116.455Q51.3532 116.688 51.2619 116.917Q51.1706 117.145 51.0685 117.367Q50.9664 117.59 50.8537 117.806Q50.7411 118.023 50.618 118.232Q50.4949 118.442 50.3617 118.645Q50.2286 118.848 50.0855 119.043Q49.9425 119.238 49.7899 119.426Q49.6373 119.613 49.4755 119.793Q49.3136 119.972 49.1429 120.143Q48.9721 120.314 48.7928 120.475Q48.6134 120.637 48.4259 120.79Q48.2384 120.943 48.043 121.086Q47.8477 121.229 47.6449 121.362Q47.4421 121.495 47.2324 121.618Q47.0226 121.741 46.8062 121.854Q46.5899 121.966 46.3673 122.069Q46.1448 122.171 45.9167 122.262Q45.6885 122.353 45.4551 122.433Q45.2217 122.514 44.9835 122.583Q44.7454 122.652 44.503 122.71Q44.2605 122.768 44.0144 122.814Q43.7682 122.86 43.5188 122.895Q43.2693 122.93 43.0172 122.953Q42.765 122.977 42.5106 122.988Q42.2561 123 42 123L0 123" id="Path-3" fill="none" stroke="#F75930" stroke-width="1" stroke-linecap="round" />
</svg>